# xmcd
#
# Track frame offsets:
#	150
#	15049
#	31891
#	48761
#	63816
#	79934
#	92002
#	109282
#	126087
#	139519
#
# Disc length: 2043 seconds
#
# Revision: 4
# Processed by: cddbd v1.5.2PL0 Copyright (c) Steve Scherf et al.
# Submitted via: audiograbber 1.83.01
#
DISCID=6e07f90a
DTITLE=Kenny Rogers - Kenny Rogers, disc 2
DYEAR=2006
DGENRE=Easy Listening
TTITLE0=Crazy
TTITLE1=When A Man Loves A Woman
TTITLE2=You Decorated My Llife
TTITLE3=I Can't Help Falling In Love
TTITLE4=The Wind Beneath My Wings
TTITLE5=It Had To Be You
TTITLE6=I Swear
TTITLE7=Stardust
TTITLE8=I Will Always Love You
TTITLE9=You Send Me
EXTD=3 Disc Set - Disc 2
EXTT0=
EXTT1=
EXTT2=
EXTT3=
EXTT4=
EXTT5=
EXTT6=
EXTT7=
EXTT8=
EXTT9=
PLAYORDER=
